<?xml version="1.0" encoding="UTF-8"?>
<svg id="_레이어_2" data-name="레이어 2" xmlns="http://www.w3.org/2000/svg" viewBox="0 0 136.9 37.65">
  <defs>
    <style>
      .cls-1 {
        fill: #ffffff;
      }
    </style>
  </defs>
  <g id="_레이어_1-2" data-name="레이어 1">
    <g>
      <g>
        <path class="cls-1" d="M0,.43h5.18v9.34h.14L12.45.43h6.35l-8.29,10.6,8.5,11.71h-6.41l-7.3-10.17h-.12v10.17H0V.43Z"/>
        <path class="cls-1" d="M25.2,21.65c-1.79-1.01-3.19-2.4-4.21-4.17-1.02-1.77-1.53-3.73-1.53-5.9s.51-4.13,1.53-5.9c1.02-1.77,2.42-3.16,4.21-4.17,1.79-1.01,3.78-1.52,5.98-1.52s4.18.51,5.96,1.52,3.19,2.4,4.21,4.16,1.53,3.73,1.53,5.91-.51,4.15-1.53,5.91-2.43,3.15-4.21,4.16-3.78,1.52-5.96,1.52-4.19-.51-5.98-1.52ZM34.53,17.42c.99-.56,1.76-1.36,2.32-2.38.55-1.02.83-2.17.83-3.46s-.28-2.44-.83-3.46c-.55-1.02-1.33-1.82-2.32-2.38-.99-.57-2.11-.85-3.35-.85s-2.38.28-3.37.85c-.99.56-1.77,1.36-2.33,2.37-.56,1.02-.84,2.17-.84,3.47s.28,2.45.84,3.47c.56,1.02,1.34,1.81,2.33,2.37.99.57,2.11.85,3.37.85s2.36-.28,3.35-.85Z"/>
        <path class="cls-1" d="M45.9.43h8.26c1.51,0,2.83.24,3.97.71,1.14.47,2.02,1.13,2.63,1.99s.92,1.84.91,2.97c0,1.14-.31,2.12-.95,2.94-.64.82-1.56,1.44-2.75,1.85v.11c1.52.4,2.69,1.08,3.52,2.03.83.95,1.24,2.11,1.22,3.49,0,1.24-.33,2.33-.99,3.27-.66.94-1.61,1.67-2.84,2.18s-2.67.77-4.3.77h-8.69V.43ZM55.66,8.51c.49-.37.74-.87.74-1.52s-.24-1.19-.72-1.56c-.48-.37-1.17-.55-2.05-.54h-2.9v4.16h2.84c.9,0,1.6-.18,2.09-.55ZM56.27,17.42c.54-.41.81-.99.81-1.74s-.28-1.33-.83-1.74c-.55-.41-1.33-.61-2.34-.6h-3.17v4.68h3.27c.98.01,1.73-.19,2.27-.6Z"/>
        <path class="cls-1" d="M70.67,21.65c-1.79-1.01-3.19-2.4-4.21-4.17-1.02-1.77-1.53-3.73-1.53-5.9s.51-4.13,1.53-5.9c1.02-1.77,2.42-3.16,4.21-4.17,1.79-1.01,3.78-1.52,5.98-1.52s4.18.51,5.96,1.52,3.19,2.4,4.21,4.16,1.53,3.73,1.53,5.91-.51,4.15-1.53,5.91-2.43,3.15-4.21,4.16-3.78,1.52-5.96,1.52-4.19-.51-5.98-1.52ZM80,17.42c.99-.56,1.76-1.36,2.32-2.38.55-1.02.83-2.17.83-3.46s-.28-2.44-.83-3.46c-.55-1.02-1.33-1.82-2.32-2.38-.99-.57-2.11-.85-3.35-.85s-2.38.28-3.37.85c-.99.56-1.77,1.36-2.33,2.37-.56,1.02-.84,2.17-.84,3.47s.28,2.45.84,3.47c.56,1.02,1.34,1.81,2.33,2.37.99.57,2.11.85,3.37.85s2.36-.28,3.35-.85Z"/>
        <path class="cls-1" d="M90.38.43h18.06v4.87h-6.44v17.44h-5.18V5.3h-6.44V.43Z"/>
        <path class="cls-1" d="M111.76.43h5.18v22.31h-5.18V.43Z"/>
        <path class="cls-1" d="M123.95,22.32c-1.48-.57-2.81-1.38-3.97-2.44l3.14-3.82c1.6,1.48,3.37,2.22,5.3,2.22,1.04,0,1.84-.19,2.42-.57s.86-.91.85-1.59c.01-.37-.08-.69-.29-.95s-.54-.5-1.01-.72-1.13-.43-1.97-.65l-1.02-.28c-2.18-.57-3.83-1.4-4.95-2.52-1.12-1.11-1.68-2.47-1.67-4.08,0-1.3.36-2.49,1.07-3.54.71-1.06,1.7-1.89,2.96-2.49,1.26-.6,2.68-.9,4.25-.9,1.41,0,2.78.26,4.12.79,1.34.52,2.57,1.27,3.67,2.23l-3.08,3.85c-.76-.68-1.53-1.18-2.32-1.49-.79-.32-1.61-.48-2.46-.48-.58,0-1.1.08-1.56.25-.47.17-.83.41-1.09.72-.26.31-.39.65-.39,1.03,0,.44.22.81.62,1.09.41.29,1.1.56,2.09.82l1.05.28c2.45.64,4.26,1.52,5.43,2.63,1.17,1.12,1.75,2.54,1.75,4.27,0,1.39-.36,2.62-1.07,3.71s-1.71,1.94-2.98,2.55-2.73.92-4.36.92c-1.54,0-3.05-.29-4.54-.86Z"/>
      </g>
      <g>
        <path class="cls-1" d="M.01,30.32h.69v2.52h.03l2.34-2.52h.9l-2.53,2.68,2.63,2.96h-.94l-2.39-2.75h-.03v2.75H.01v-5.65Z"/>
        <path class="cls-1" d="M6.96,35.8c-.31-.18-.56-.44-.74-.76-.18-.32-.27-.68-.27-1.08s.09-.76.27-1.08c.18-.32.43-.58.74-.76s.67-.28,1.05-.28.74.09,1.05.28c.31.18.56.44.74.76.18.32.27.68.27,1.08s-.09.76-.27,1.08c-.18.32-.43.58-.74.76-.32.18-.67.28-1.05.28s-.74-.09-1.05-.28ZM8.74,35.26c.21-.13.38-.3.49-.53.12-.23.18-.48.18-.78s-.06-.55-.18-.78c-.12-.23-.28-.4-.49-.53-.21-.13-.45-.19-.72-.19s-.51.06-.72.19-.38.3-.5.53-.18.49-.18.78.06.55.18.78c.12.23.28.4.5.53.21.13.45.19.72.19s.51-.06.72-.19Z"/>
        <path class="cls-1" d="M12.49,31.94h.66v.62h.03c.1-.22.25-.4.44-.53s.39-.2.62-.2c.14,0,.28.03.42.09v.65c-.15-.05-.29-.07-.44-.07-.22,0-.42.06-.58.17-.16.12-.28.28-.37.5-.08.22-.13.48-.13.78v2.01h-.66v-4.02Z"/>
        <path class="cls-1" d="M17.67,35.8c-.32-.18-.57-.44-.75-.76-.18-.32-.27-.68-.27-1.08s.09-.76.26-1.08c.17-.32.42-.58.72-.76s.65-.28,1.03-.28.71.09,1.01.28c.3.18.53.44.7.76.17.32.25.68.25,1.08v.23h-3.3c.03.25.11.48.24.67s.3.34.5.44c.21.1.43.16.69.16.27,0,.51-.06.7-.18s.35-.29.45-.51l.58.25c-.16.33-.39.59-.69.78-.3.19-.65.29-1.06.29s-.76-.09-1.07-.28ZM19.9,33.54c-.01-.2-.07-.39-.18-.55s-.25-.29-.44-.39c-.18-.09-.39-.14-.61-.14s-.42.04-.6.13c-.18.09-.33.22-.45.38-.12.16-.21.35-.26.57h2.54Z"/>
        <path class="cls-1" d="M26.11,35.96v-.63h-.03c-.14.24-.32.43-.54.55-.22.13-.48.19-.77.19-.37,0-.7-.09-.99-.28-.29-.18-.52-.44-.68-.76-.17-.32-.25-.68-.25-1.08s.08-.76.25-1.08c.17-.32.39-.58.68-.76.29-.18.62-.28.99-.28.29,0,.55.06.77.19.22.13.4.31.54.55h.03v-.63h.66v4.02h-.66ZM25.51,35.26c.2-.13.35-.3.47-.53.11-.23.17-.48.17-.78s-.06-.55-.17-.78c-.11-.23-.27-.4-.47-.53s-.42-.19-.68-.19-.48.06-.68.19-.35.3-.46.53-.17.49-.17.77.06.55.17.77.26.41.46.53c.2.13.43.19.68.19s.48-.06.68-.19Z"/>
        <path class="cls-1" d="M32.96,30.32h1.72c.4,0,.75.07,1.06.21.31.14.54.33.71.59.17.25.25.54.25.87,0,.27-.06.52-.17.74-.12.22-.28.41-.5.56-.22.15-.47.26-.76.32l1.6,2.36h-.81l-1.56-2.3h-.85v2.3h-.69v-5.65ZM34.68,33.02c.42,0,.74-.09.97-.27.23-.18.35-.44.35-.76s-.12-.58-.35-.76c-.23-.18-.55-.27-.97-.27h-1.04v2.07h1.04Z"/>
        <path class="cls-1" d="M39.89,35.8c-.31-.18-.56-.44-.74-.76-.18-.32-.27-.68-.27-1.08s.09-.76.27-1.08c.18-.32.43-.58.74-.76s.67-.28,1.05-.28.74.09,1.05.28.56.44.74.76c.18.32.27.68.27,1.08s-.09.76-.27,1.08c-.18.32-.43.58-.74.76s-.67.28-1.05.28-.74-.09-1.05-.28ZM41.67,35.26c.21-.13.38-.3.5-.53.12-.23.18-.48.18-.78s-.06-.55-.18-.78-.28-.4-.5-.53-.45-.19-.72-.19-.51.06-.72.19c-.21.13-.38.3-.5.53-.12.23-.18.49-.18.78s.06.55.18.78c.12.23.28.4.5.53.21.13.45.19.72.19s.51-.06.72-.19Z"/>
        <path class="cls-1" d="M45.43,30.32h.65v2.25h.03c.14-.24.32-.43.54-.55.22-.13.48-.19.77-.19.37,0,.7.09.99.28s.52.44.68.76c.17.32.25.68.25,1.08s-.08.76-.25,1.08c-.17.32-.39.58-.68.76s-.62.28-.99.28c-.29,0-.55-.06-.77-.19-.22-.13-.4-.31-.54-.55h-.03v.63h-.65v-5.65ZM48.04,35.26c.2-.13.35-.3.46-.53s.17-.49.17-.77-.06-.55-.17-.77-.27-.41-.46-.53c-.2-.13-.43-.19-.68-.19s-.48.06-.68.19c-.2.13-.36.3-.47.53s-.17.49-.17.78.06.55.17.78c.11.23.27.4.47.53.2.13.42.19.68.19s.48-.06.68-.19Z"/>
        <path class="cls-1" d="M52.58,35.8c-.31-.18-.56-.44-.74-.76-.18-.32-.27-.68-.27-1.08s.09-.76.27-1.08c.18-.32.43-.58.74-.76s.67-.28,1.05-.28.74.09,1.05.28.56.44.74.76c.18.32.27.68.27,1.08s-.09.76-.27,1.08c-.18.32-.43.58-.74.76s-.67.28-1.05.28-.74-.09-1.05-.28ZM54.36,35.26c.21-.13.38-.3.5-.53.12-.23.18-.48.18-.78s-.06-.55-.18-.78-.28-.4-.5-.53-.45-.19-.72-.19-.51.06-.72.19c-.21.13-.38.3-.5.53-.12.23-.18.49-.18.78s.06.55.18.78c.12.23.28.4.5.53.21.13.45.19.72.19s.51-.06.72-.19Z"/>
        <path class="cls-1" d="M57.68,31.94h.69v-1h.65v1h1v.55h-1v2.31c0,.22.05.38.14.48.1.1.25.16.45.16.12,0,.25-.02.41-.06v.62c-.15.06-.32.09-.5.09-.23,0-.44-.05-.61-.15s-.31-.25-.4-.44-.14-.41-.14-.67v-2.33h-.69v-.55Z"/>
        <path class="cls-1" d="M66.69,35.88c-.27-.13-.48-.31-.63-.55-.15-.23-.23-.5-.23-.79,0-.27.06-.52.18-.73.12-.21.28-.4.46-.55s.4-.3.65-.46l-.16-.18c-.18-.2-.31-.39-.39-.57-.08-.18-.12-.36-.12-.55,0-.25.06-.47.18-.67.12-.19.28-.35.49-.46.21-.11.45-.16.71-.16s.5.06.71.17.37.26.49.46c.12.2.18.42.18.67,0,.19-.04.35-.11.5s-.19.29-.34.42c-.16.14-.37.3-.65.48l1.31,1.47c.12-.2.21-.41.28-.65.06-.24.1-.48.1-.74h.69c0,.35-.05.69-.16,1.01-.11.32-.25.62-.45.88l.95,1.07h-.87l-.52-.58c-.25.22-.53.39-.83.51s-.63.18-.96.18-.66-.07-.93-.2ZM66.66,35.01c.09.13.22.24.39.31.17.07.37.11.59.11.25,0,.5-.05.73-.14.23-.09.44-.22.63-.4l-1.45-1.63c-.22.14-.4.27-.54.39s-.26.25-.34.4c-.09.15-.13.31-.13.49s.04.34.14.48ZM67.47,32.19l.23.26c.22-.15.39-.28.51-.38.12-.11.2-.2.24-.29.04-.09.07-.18.07-.27,0-.13-.03-.24-.09-.34-.06-.1-.14-.18-.24-.23-.1-.05-.22-.08-.35-.08s-.25.03-.36.08-.19.13-.24.23c-.06.1-.09.21-.09.33,0,.23.11.46.32.69Z"/>
        <path class="cls-1" d="M76.72,30.32h.69v5.65h-.69v-5.65Z"/>
        <path class="cls-1" d="M83.11,35.96v-.63h-.03c-.14.24-.32.43-.54.55s-.48.19-.77.19c-.37,0-.7-.09-.99-.28s-.52-.44-.68-.76c-.17-.32-.25-.68-.25-1.08s.08-.76.25-1.08c.16-.32.39-.58.68-.76s.62-.28.99-.28c.29,0,.55.06.77.19s.4.31.54.55h.03v-2.5h.66v5.9h-.66ZM82.51,35.26c.2-.13.35-.3.47-.53.11-.23.17-.48.17-.78s-.06-.55-.17-.78-.27-.4-.47-.53c-.2-.13-.42-.19-.68-.19s-.48.06-.68.19c-.2.13-.35.3-.46.53-.11.23-.17.49-.17.77s.06.55.17.77c.11.23.27.41.46.53.2.13.43.19.68.19s.48-.06.68-.19Z"/>
        <path class="cls-1" d="M87.2,35.8c-.32-.18-.57-.44-.75-.76-.18-.32-.27-.68-.27-1.08s.09-.76.26-1.08c.17-.32.42-.58.72-.76s.65-.28,1.03-.28.71.09,1.01.28c.3.18.53.44.7.76.17.32.25.68.25,1.08v.23h-3.3c.03.25.11.48.24.67s.3.34.5.44c.21.1.43.16.69.16.27,0,.51-.06.7-.18s.35-.29.45-.51l.58.25c-.16.33-.39.59-.69.78-.3.19-.65.29-1.06.29s-.76-.09-1.07-.28ZM89.44,33.54c-.01-.2-.07-.39-.18-.55s-.25-.29-.44-.39c-.18-.09-.39-.14-.61-.14s-.42.04-.6.13c-.18.09-.33.22-.45.38-.12.16-.21.35-.26.57h2.54Z"/>
        <path class="cls-1" d="M95.65,35.96v-.63h-.03c-.14.24-.32.43-.54.55-.22.13-.48.19-.77.19-.37,0-.7-.09-.99-.28-.29-.18-.52-.44-.68-.76-.17-.32-.25-.68-.25-1.08s.08-.76.25-1.08c.17-.32.39-.58.68-.76.29-.18.62-.28.99-.28.29,0,.55.06.77.19.22.13.4.31.54.55h.03v-.63h.66v4.02h-.66ZM95.04,35.26c.2-.13.35-.3.47-.53.11-.23.17-.48.17-.78s-.06-.55-.17-.78c-.11-.23-.27-.4-.47-.53s-.42-.19-.68-.19-.48.06-.68.19-.35.3-.46.53-.17.49-.17.77.06.55.17.77.26.41.46.53c.2.13.43.19.68.19s.48-.06.68-.19Z"/>
        <path class="cls-1" d="M103.15,35.81c-.32-.17-.6-.44-.84-.81l.58-.37c.2.28.4.48.61.6.21.12.47.18.76.18.25,0,.48-.04.66-.12.19-.08.33-.2.43-.36.1-.16.15-.34.15-.55,0-.17-.04-.32-.12-.44s-.2-.23-.38-.33c-.17-.09-.41-.18-.71-.27l-.28-.08c-.52-.14-.91-.33-1.15-.57-.24-.24-.36-.54-.36-.91,0-.3.08-.57.22-.81.15-.24.36-.43.62-.57.27-.14.57-.21.9-.21.38,0,.74.09,1.06.28s.59.44.8.78l-.59.34c-.16-.24-.34-.43-.56-.55-.22-.13-.45-.19-.71-.19-.21,0-.39.04-.55.12-.16.08-.28.19-.37.33-.09.14-.13.3-.13.48,0,.15.03.27.1.37.06.1.17.19.31.26.14.08.34.15.59.22l.28.08c.4.11.73.24.98.4.25.15.44.33.55.54.12.21.18.45.18.73,0,.33-.08.63-.24.88-.16.25-.39.45-.68.59-.29.14-.63.21-1.02.21-.42,0-.79-.09-1.11-.26Z"/>
        <path class="cls-1" d="M108.27,31.94h.71l1.33,3.2h.03l1.19-3.2h.69l-2.19,5.71h-.71l.65-1.68-1.71-4.02Z"/>
        <path class="cls-1" d="M114.24,35.31l.53-.37c.13.18.28.31.44.39.16.08.36.12.58.12.28,0,.5-.06.66-.17.16-.11.23-.27.23-.47,0-.11-.03-.2-.08-.27-.05-.07-.14-.14-.26-.2-.12-.06-.29-.11-.51-.17l-.22-.05c-.42-.11-.73-.25-.93-.43s-.3-.41-.3-.68c0-.22.06-.43.19-.61s.29-.32.51-.42c.21-.1.46-.15.72-.15.3,0,.58.07.84.2.26.13.47.32.63.56l-.55.36c-.11-.16-.25-.28-.41-.37s-.33-.12-.52-.12c-.22,0-.4.05-.54.16-.14.1-.21.24-.21.41,0,.09.02.16.06.21.04.06.12.11.22.15.1.04.25.09.43.14l.22.05c.48.12.82.28,1.04.47.22.2.33.46.33.77,0,.25-.07.47-.2.66-.13.19-.31.34-.55.44-.23.11-.51.16-.81.16-.65,0-1.17-.25-1.56-.76Z"/>
        <path class="cls-1" d="M119.4,31.94h.69v-1h.65v1h1v.55h-1v2.31c0,.22.05.38.14.48.1.1.25.16.45.16.12,0,.25-.02.41-.06v.62c-.15.06-.32.09-.5.09-.23,0-.44-.05-.61-.15-.17-.1-.31-.25-.4-.44s-.14-.41-.14-.67v-2.33h-.69v-.55Z"/>
        <path class="cls-1" d="M124.93,35.8c-.32-.18-.57-.44-.75-.76-.18-.32-.27-.68-.27-1.08s.09-.76.26-1.08c.18-.32.42-.58.72-.76.31-.18.65-.28,1.03-.28s.71.09,1.01.28.53.44.7.76.25.68.25,1.08v.23h-3.3c.03.25.11.48.24.67.13.19.3.34.5.44.21.1.44.16.69.16.27,0,.51-.06.71-.18.2-.12.35-.29.45-.51l.58.25c-.16.33-.39.59-.69.78-.3.19-.65.29-1.06.29s-.76-.09-1.07-.28ZM127.17,33.54c-.01-.2-.07-.39-.18-.55-.11-.17-.25-.29-.44-.39s-.39-.14-.61-.14-.42.04-.6.13-.33.22-.45.38c-.12.16-.21.35-.26.57h2.54Z"/>
        <path class="cls-1" d="M130.3,31.94h.66v.58h.02c.09-.22.24-.39.43-.51s.43-.18.69-.18c.28,0,.52.07.72.21.2.14.34.34.44.6h.03c.08-.25.23-.45.44-.59s.47-.22.77-.22.53.07.73.2.35.33.46.58c.1.25.16.55.16.89v2.46h-.65v-2.37c0-.37-.07-.65-.21-.85-.14-.2-.33-.29-.59-.29-.18,0-.34.05-.49.14-.15.09-.27.24-.36.42-.09.19-.14.42-.14.7v2.25h-.65v-2.37c0-.37-.07-.65-.21-.85-.14-.2-.33-.29-.59-.29-.18,0-.34.05-.49.14s-.27.24-.36.42c-.09.19-.14.42-.14.7v2.25h-.66v-4.02Z"/>
      </g>
    </g>
  </g>
</svg>